{
  "accessors": [
    {
      "bufferView": 2,
      "componentType": 5126,
      "count": 3213,
      "max": [
        104.66252136230469,
        104.75862121582031,
        11.546183586120605
      ],
      "min": [
        -104.66252899169922,
        -103.30779266357422,
        0.0
      ],
      "type": "VEC3"
    },
    {
      "bufferView": 2,
      "byteOffset": 38556,
      "componentType": 5126,
      "count": 3213,
      "max": [
        1.0,
        1.0,
        1.0
      ],
      "min": [
        -1.0,
        -1.0,
        -1.0
      ],
      "type": "VEC3"
    },
    {
      "bufferView": 3,
      "componentType": 5126,
      "count": 3213,
      "max": [
        1.0,
        1.0,
        1.0,
        1.0
      ],
      "min": [
        -1.0,
        -1.0,
        -1.0,
        -1.0
      ],
      "type": "VEC4"
    },
    {
      "bufferView": 1,
      "componentType": 5126,
      "count": 3213,
      "max": [
        1.0,
        1.0
      ],
      "min": [
        0.0,
        0.0
      ],
      "type": "VEC2"
    },
    {
      "bufferView": 0,
      "componentType": 5125,
      "count": 4218,
      "type": "SCALAR"
    },
    {
      "bufferView": 2,
      "byteOffset": 77112,
      "componentType": 5126,
      "count": 432,
      "max": [
        103.28720092773438,
        104.58079528808594,
        11.403055191040039
      ],
      "min": [
        -103.2872085571289,
        -99.18180084228516,
        9.611917495727539
      ],
      "type": "VEC3"
    },
    {
      "bufferView": 2,
      "byteOffset": 82296,
      "componentType": 5126,
      "count": 432,
      "max": [
        0.9963353276252747,
        0.9974461197853088,
        1.0
      ],
      "min": [
        -0.9953746199607849,
        -0.9705347418785095,
        -0.06661206483840942
      ],
      "type": "VEC3"
    },
    {
      "bufferView": 1,
      "byteOffset": 25704,
      "componentType": 5126,
      "count": 432,
      "max": [
        0.36364832520484924,
        0.9994999766349792
      ],
      "min": [
        0.0,
        0.0005000000237487257
      ],
      "type": "VEC2"
    },
    {
      "bufferView": 0,
      "byteOffset": 16872,
      "componentType": 5125,
      "count": 432,
      "type": "SCALAR"
    },
    {
      "bufferView": 2,
      "byteOffset": 87480,
      "componentType": 5126,
      "count": 32,
      "max": [
        75.51929473876953,
        75.51927947998047,
        5.137163162231445
      ],
      "min": [
        -75.51935577392578,
        -75.51937103271484,
        5.137163162231445
      ],
      "type": "VEC3"
    },
    {
      "bufferView": 2,
      "byteOffset": 87864,
      "componentType": 5126,
      "count": 32,
      "max": [
        0.0,
        0.0,
        1.0
      ],
      "min": [
        0.0,
        0.0,
        1.0
      ],
      "type": "VEC3"
    },
    {
      "bufferView": 3,
      "byteOffset": 51408,
      "componentType": 5126,
      "count": 32,
      "max": [
        0.8829492926597595,
        -0.469468355178833,
        0.0,
        1.0
      ],
      "min": [
        0.8829472661018372,
        -0.46947234869003296,
        0.0,
        1.0
      ],
      "type": "VEC4"
    },
    {
      "bufferView": 1,
      "byteOffset": 29160,
      "componentType": 5126,
      "count": 32,
      "max": [
        0.999500036239624,
        0.999500036239624
      ],
      "min": [
        0.0005000000237487257,
        0.0005000000237487257
      ],
      "type": "VEC2"
    },
    {
      "bufferView": 0,
      "byteOffset": 18600,
      "componentType": 5125,
      "count": 90,
      "type": "SCALAR"
    },
    {
      "bufferView": 2,
      "byteOffset": 88248,
      "componentType": 5126,
      "count": 646,
      "max": [
        87.43951416015625,
        87.43951416015625,
        10.500000953674316
      ],
      "min": [
        -87.43951416015625,
        -87.43951416015625,
        5.137163162231445
      ],
      "type": "VEC3"
    },
    {
      "bufferView": 2,
      "byteOffset": 96000,
      "componentType": 5126,
      "count": 646,
      "max": [
        0.9951847791671753,
        0.9951848983764648,
        1.0
      ],
      "min": [
        -0.9951847791671753,
        -0.9951848983764648,
        -1.0905254299586886e-07
      ],
      "type": "VEC3"
    },
    {
      "bufferView": 3,
      "byteOffset": 51920,
      "componentType": 5126,
      "count": 646,
      "max": [
        1.0,
        0.9951847195625305,
        1.0,
        1.0
      ],
      "min": [
        -0.9212614893913269,
        -0.9951847195625305,
        -1.0,
        1.0
      ],
      "type": "VEC4"
    },
    {
      "bufferView": 1,
      "byteOffset": 29416,
      "componentType": 5126,
      "count": 646,
      "max": [
        1.0,
        1.0
      ],
      "min": [
        0.0,
        0.0
      ],
      "type": "VEC2"
    },
    {
      "bufferView": 0,
      "byteOffset": 18960,
      "componentType": 5125,
      "count": 1152,
      "type": "SCALAR"
    },
    {
      "bufferView": 4,
      "componentType": 5126,
      "count": 101,
      "max": [
        3.3333332538604736
      ],
      "min": [
        0.0
      ],
      "type": "SCALAR"
    },
    {
      "bufferView": 5,
      "componentType": 5126,
      "count": 101,
      "max": [
        0.7071069478988647,
        0.48678523302078247,
        0.7071069478988647,
        0.7071066498756409
      ],
      "min": [
        -0.49231433868408203,
        -0.7071066498756409,
        -0.48678529262542725,
        -0.49231424927711487
      ],
      "type": "VEC4"
    },
    {
      "bufferView": 4,
      "byteOffset": 404,
      "componentType": 5126,
      "count": 101,
      "max": [
        3.3333332538604736
      ],
      "min": [
        0.0
      ],
      "type": "SCALAR"
    },
    {
      "bufferView": 5,
      "byteOffset": 1616,
      "componentType": 5126,
      "count": 101,
      "max": [
        0.7071067690849304,
        0.7067776918411255,
        0.7067776918411255,
        0.7071067690849304
      ],
      "min": [
        0.021570734679698944,
        -0.7067776918411255,
        -0.7067776918411255,
        0.021570565178990364
      ],
      "type": "VEC4"
    }
  ],
  "animations": [
    {
      "channels": [
        {
          "sampler": 0,
          "target": {
            "node": 8,
            "path": "rotation"
          }
        },
        {
          "sampler": 1,
          "target": {
            "node": 10,
            "path": "rotation"
          }
        }
      ],
      "name": "Take 001",
      "samplers": [
        {
          "input": 19,
          "interpolation": "LINEAR",
          "output": 20
        },
        {
          "input": 21,
          "interpolation": "LINEAR",
          "output": 22
        }
      ]
    }
  ],
  "asset": {
    "extras": {
      "author": "Anthony Yanez (https://sketchfab.com/paulyanez)",
      "license": "CC-BY-4.0 (http://creativecommons.org/licenses/by/4.0/)",
      "source": "https://sketchfab.com/3d-models/stargate-5ddae865059443b988f3fa51b8c1531c",
      "title": "Stargate"
    },
    "generator": "Sketchfab-12.66.0",
    "version": "2.0"
  },
  "bufferViews": [
    {
      "buffer": 0,
      "byteLength": 23568,
      "name": "floatBufferViews",
      "target": 34963
    },
    {
      "buffer": 0,
      "byteLength": 34584,
      "byteOffset": 23568,
      "byteStride": 8,
      "name": "floatBufferViews",
      "target": 34962
    },
    {
      "buffer": 0,
      "byteLength": 103752,
      "byteOffset": 58152,
      "byteStride": 12,
      "name": "floatBufferViews",
      "target": 34962
    },
    {
      "buffer": 0,
      "byteLength": 62256,
      "byteOffset": 161904,
      "byteStride": 16,
      "name": "floatBufferViews",
      "target": 34962
    },
    {
      "buffer": 0,
      "byteLength": 808,
      "byteOffset": 224160,
      "name": "floatBufferViews"
    },
    {
      "buffer": 0,
      "byteLength": 3232,
      "byteOffset": 224968,
      "byteStride": 16,
      "name": "floatBufferViews"
    }
  ],
  "buffers": [
    {
      "byteLength": 228200,
      "uri": "scene.bin"
    }
  ],
  "images": [
    {
      "uri": "textures/02_-_Default_baseColor.jpeg"
    },
    {
      "uri": "textures/02_-_Default_normal.png"
    },
    {
      "uri": "textures/01_-_Default_baseColor.jpeg"
    },
    {
      "uri": "textures/01_-_Default_normal.png"
    }
  ],
  "materials": [
    {
      "doubleSided": true,
      "name": "02_-_Default",
      "normalTexture": {
        "index": 1
      },
      "pbrMetallicRoughness": {
        "baseColorTexture": {
          "index": 0
        },
        "roughnessFactor": 0.9312118902
      }
    },
    {
      "doubleSided": true,
      "name": "03_-_Default",
      "pbrMetallicRoughness": {
        "baseColorFactor": [
          0.705882,
          0.0,
          0.0,
          1.0
        ],
        "metallicFactor": 0.0,
        "roughnessFactor": 0.0
      }
    },
    {
      "doubleSided": true,
      "emissiveFactor": [
        1.0,
        1.0,
        1.0
      ],
      "emissiveTexture": {
        "index": 2
      },
      "name": "01_-_Default",
      "normalTexture": {
        "index": 3
      },
      "pbrMetallicRoughness": {
        "baseColorTexture": {
          "index": 2
        },
        "metallicFactor": 0.0,
        "roughnessFactor": 0.0
      }
    }
  ],
  "meshes": [
    {
      "name": "Gate_02 - Default_0",
      "primitives": [
        {
          "attributes": {
            "NORMAL": 1,
            "POSITION": 0,
            "TANGENT": 2,
            "TEXCOORD_0": 3
          },
          "indices": 4,
          "material": 0,
          "mode": 4
        }
      ]
    },
    {
      "name": "Gate_03 - Default_0",
      "primitives": [
        {
          "attributes": {
            "NORMAL": 6,
            "POSITION": 5,
            "TEXCOORD_0": 7
          },
          "indices": 8,
          "material": 1,
          "mode": 4
        }
      ]
    },
    {
      "name": "Portal_01 - Default_0",
      "primitives": [
        {
          "attributes": {
            "NORMAL": 10,
            "POSITION": 9,
            "TANGENT": 11,
            "TEXCOORD_0": 12
          },
          "indices": 13,
          "material": 2,
          "mode": 4
        }
      ]
    },
    {
      "name": "Ring_02 - Default_0",
      "primitives": [
        {
          "attributes": {
            "NORMAL": 15,
            "POSITION": 14,
            "TANGENT": 16,
            "TEXCOORD_0": 17
          },
          "indices": 18,
          "material": 0,
          "mode": 4
        }
      ]
    }
  ],
  "nodes": [
    {
      "children": [
        1
      ],
      "matrix": [
        1.0,
        0.0,
        0.0,
        0.0,
        0.0,
        2.220446049250313e-16,
        -1.0,
        0.0,
        0.0,
        1.0,
        2.220446049250313e-16,
        0.0,
        0.0,
        0.0,
        0.0,
        1.0
      ],
      "name": "Sketchfab_model"
    },
    {
      "children": [
        2
      ],
      "matrix": [
        1.0,
        0.0,
        0.0,
        0.0,
        0.0,
        0.0,
        1.0,
        0.0,
        0.0,
        -1.0,
        0.0,
        0.0,
        0.0,
        0.0,
        0.0,
        1.0
      ],
      "name": "Stargate.FBX"
    },
    {
      "children": [
        3
      ],
      "name": "Object_2"
    },
    {
      "children": [
        4
      ],
      "name": "RootNode"
    },
    {
      "children": [
        5,
        8,
        10
      ],
      "name": "Stargate",
      "rotation": [
        -0.7071068286895752,
        -0.0,
        0.0,
        0.7071068286895752
      ],
      "translation": [
        -0.4419898986816406,
        0.062427520751953125,
        5.773075580596924
      ]
    },
    {
      "children": [
        6,
        7
      ],
      "name": "Gate",
      "rotation": [
        0.7071068286895752,
        0.0,
        0.0,
        0.7071067094802856
      ],
      "translation": [
        9.5367431640625e-07,
        5.773075580596924,
        -0.7254109382629395
      ]
    },
    {
      "mesh": 0,
      "name": "Gate_02 - Default_0"
    },
    {
      "mesh": 1,
      "name": "Gate_03 - Default_0"
    },
    {
      "children": [
        9
      ],
      "name": "Portal",
      "rotation": [
        0.7071069478988647,
        2.079281671285571e-07,
        -3.934082215550916e-08,
        0.7071066498756409
      ],
      "translation": [
        9.5367431640625e-07,
        5.773075580596924,
        -0.7254109382629395
      ]
    },
    {
      "mesh": 2,
      "name": "Portal_01 - Default_0"
    },
    {
      "children": [
        11
      ],
      "name": "Ring",
      "rotation": [
        0.7071067690849304,
        1.6858739115832577e-07,
        6.363999513595052e-15,
        0.7071068286895752
      ],
      "translation": [
        9.5367431640625e-07,
        5.773075580596924,
        -0.7254109382629395
      ]
    },
    {
      "mesh": 3,
      "name": "Ring_02 - Default_0"
    }
  ],
  "samplers": [
    {
      "magFilter": 9729,
      "minFilter": 9987,
      "wrapS": 10497,
      "wrapT": 10497
    }
  ],
  "scene": 0,
  "scenes": [
    {
      "name": "Sketchfab_Scene",
      "nodes": [
        0
      ]
    }
  ],
  "textures": [
    {
      "sampler": 0,
      "source": 0
    },
    {
      "sampler": 0,
      "source": 1
    },
    {
      "sampler": 0,
      "source": 2
    },
    {
      "sampler": 0,
      "source": 3
    }
  ]
}
