{"accessors" : [{"bufferView" : 0, "byteOffset" : 0, "componentType" : 5123, "count" : 6828, "type" : "SCALAR", "max" : [5817], "min" : [0]}, {"bufferView" : 1, "byteOffset" : 0, "componentType" : 5126, "count" : 5818, "type" : "VEC3", "max" : [32.824546813964844, 7.155022144317627, 152.3210906982422], "min" : [17.868711471557617, 3.0400822162628174, 140.937255859375], "name" : "POSITION"}, {"bufferView" : 1, "byteOffset" : 12, "componentType" : 5126, "count" : 5818, "type" : "VEC2", "max" : [1, 1], "min" : [0, 0], "name" : "TEXCOORD_0"}, {"bufferView" : 1, "byteOffset" : 20, "componentType" : 5126, "count" : 5818, "type" : "VEC3", "max" : [0.9903191328048706, 0.9999300241470337, 0.9995834231376648], "min" : [-0.9995532631874084, -0.9998937845230103, -0.9959397315979004], "name" : "NORMAL"}, {"bufferView" : 0, "byteOffset" : 13656, "componentType" : 5123, "count" : 6828, "type" : "SCALAR", "max" : [5827], "min" : [0]}, {"bufferView" : 2, "byteOffset" : 0, "componentType" : 5126, "count" : 5828, "type" : "VEC3", "max" : [33.57217788696289, 2.48382830619812, 153.078857421875], "min" : [18.13481903076172, 0.455480694770813, 141.29869079589844], "name" : "POSITION"}, {"bufferView" : 2, "byteOffset" : 12, "componentType" : 5126, "count" : 5828, "type" : "VEC2", "max" : [1, 1], "min" : [0, 0], "name" : "TEXCOORD_0"}, {"bufferView" : 2, "byteOffset" : 20, "componentType" : 5126, "count" : 5828, "type" : "VEC3", "max" : [0.9999715089797974, 0.9938840866088867, 0.994834840297699], "min" : [-0.8959597945213318, -0.9938827753067017, -0.7925869226455688], "name" : "NORMAL"}, {"bufferView" : 0, "byteOffset" : 27312, "componentType" : 5123, "count" : 6828, "type" : "SCALAR", "max" : [5842], "min" : [0]}, {"bufferView" : 3, "byteOffset" : 0, "componentType" : 5126, "count" : 5843, "type" : "VEC3", "max" : [32.57933044433594, 2.457383394241333, 152.01449584960938], "min" : [17.384855270385742, 0.34560146927833557, 139.66143798828125], "name" : "POSITION"}, {"bufferView" : 3, "byteOffset" : 12, "componentType" : 5126, "count" : 5843, "type" : "VEC2", "max" : [1, 1], "min" : [0, 0], "name" : "TEXCOORD_0"}, {"bufferView" : 3, "byteOffset" : 20, "componentType" : 5126, "count" : 5843, "type" : "VEC3", "max" : [0.7683589458465576, 0.9962512254714966, 0.7915552854537964], "min" : [-0.9999070763587952, -0.9962263703346252, -0.9939014315605164], "name" : "NORMAL"}, {"bufferView" : 0, "byteOffset" : 40968, "componentType" : 5123, "count" : 1056, "type" : "SCALAR", "max" : [920], "min" : [0]}, {"bufferView" : 4, "byteOffset" : 0, "componentType" : 5126, "count" : 921, "type" : "VEC3", "max" : [-44.928340911865234, 3.7535979747772217, 208.88926696777344], "min" : [-56.46940994262695, 0.24967090785503387, 199.76148986816406], "name" : "POSITION"}, {"bufferView" : 4, "byteOffset" : 12, "componentType" : 5126, "count" : 921, "type" : "VEC2", "max" : [1, 1], "min" : [0, 0], "name" : "TEXCOORD_0"}, {"bufferView" : 4, "byteOffset" : 20, "componentType" : 5126, "count" : 921, "type" : "VEC3", "max" : [0.8000681400299072, 1, 0.8288838863372803], "min" : [-0.6609578728675842, -0.9966673254966736, -0.907385528087616], "name" : "NORMAL"}, {"bufferView" : 0, "byteOffset" : 43080, "componentType" : 5123, "count" : 7380, "type" : "SCALAR", "max" : [6252], "min" : [0]}, {"bufferView" : 5, "byteOffset" : 0, "componentType" : 5126, "count" : 6253, "type" : "VEC3", "max" : [36.97832107543945, 3.5712099075317383, 201.46119689941406], "min" : [-46.36754608154297, 1.1670383214950562, 137.47572326660156], "name" : "POSITION"}, {"bufferView" : 5, "byteOffset" : 12, "componentType" : 5126, "count" : 6253, "type" : "VEC2", "max" : [1, 1], "min" : [-5.3920000409046764E-11, 0], "name" : "TEXCOORD_0"}, {"bufferView" : 5, "byteOffset" : 20, "componentType" : 5126, "count" : 6253, "type" : "VEC3", "max" : [0.7959756255149841, 1, 0.8131489753723145], "min" : [-0.7960155010223389, -0.9999104142189026, -0.7959689497947693], "name" : "NORMAL"}], "asset" : {"generator" : "Aspose.3D 23.12.0", "version" : "2.0"}, "buffers" : [{"uri" : "data:application/octet-stream;base64,", "byteLength" : 983304}], "bufferViews" : [{"buffer" : 0, "byteOffset" : 0, "byteLength" : 57840, "target" : 34963}, {"buffer" : 0, "byteOffset" : 57844, "byteLength" : 218496, "byteStride" : 32, "target" : 34962}, {"buffer" : 0, "byteOffset" : 276344, "byteLength" : 218496, "byteStride" : 32, "target" : 34962}, {"buffer" : 0, "byteOffset" : 494844, "byteLength" : 218496, "byteStride" : 32, "target" : 34962}, {"buffer" : 0, "byteOffset" : 713344, "byteLength" : 33792, "byteStride" : 32, "target" : 34962}, {"buffer" : 0, "byteOffset" : 747140, "byteLength" : 236160, "byteStride" : 32, "target" : 34962}], "meshes" : [{"primitives" : [{"attributes" : {"POSITION" : 1, "TEXCOORD_0" : 2, "NORMAL" : 3}, "indices" : 0, "mode" : 4}], "name" : ""}, {"primitives" : [{"attributes" : {"POSITION" : 5, "TEXCOORD_0" : 6, "NORMAL" : 7}, "indices" : 4, "mode" : 4}], "name" : ""}, {"primitives" : [{"attributes" : {"POSITION" : 9, "TEXCOORD_0" : 10, "NORMAL" : 11}, "indices" : 8, "mode" : 4}], "name" : ""}, {"primitives" : [{"attributes" : {"POSITION" : 13, "TEXCOORD_0" : 14, "NORMAL" : 15}, "indices" : 12, "mode" : 4}], "name" : ""}, {"primitives" : [{"attributes" : {"POSITION" : 17, "TEXCOORD_0" : 18, "NORMAL" : 19}, "indices" : 16, "mode" : 4}], "name" : ""}], "nodes" : [{"mesh" : 0, "name" : "Extrude.2_0"}, {"mesh" : 1, "name" : "Extrude.1_1"}, {"mesh" : 2, "name" : "Extrude_2"}, {"mesh" : 3, "name" : "Polygon.2"}, {"mesh" : 4, "name" : "Extrude.1"}], "scene" : 0, "scenes" : [{"nodes" : [0, 1, 2, 3, 4]}]}